<?xml version="1.0" encoding="UTF-8" standalone="no"?>
<!DOCTYPE svg PUBLIC "-//W3C//DTD SVG 1.0//EN"
 "http://www.w3.org/TR/2001/REC-SVG-20010904/DTD/svg10.dtd" [
 <!ATTLIST svg xmlns:xlink CDATA #FIXED "http://www.w3.org/1999/xlink">
]>
<!-- Generated by Graphviz version 2.20.2 (Tue Mar &#160;2 19:03:41 UTC 2010)
 -->
<!-- Title: _anonymous_0 Pages: 1 -->
<svg width="962pt" height="404pt"
 viewBox="0.00 0.00 962.00 404.00" xmlns="http://www.w3.org/2000/svg" xmlns:xlink="http://www.w3.org/1999/xlink">
<g id="graph0" class="graph" transform="scale(1 1) rotate(0) translate(4 400)">
<title>_anonymous_0</title>
<polygon style="fill:white;stroke:white;" points="-4,4 -4,-400 958,-400 958,4 -4,4"/>
<!-- 1 -->
<g id="node1" class="node"><title>1</title>
<ellipse style="fill:blue;stroke:black;" cx="468" cy="-306" rx="63.9315" ry="18"/>
<text text-anchor="middle" x="468" y="-302.2" style="font-family:Times New Roman;font-size:12.00;">mu&#45;, 4500MeV</text>
</g>
<!-- 2 -->
<g id="node2" class="node"><title>2</title>
<ellipse style="fill:blue;stroke:black;" cx="50" cy="-234" rx="50.2295" ry="18"/>
<text text-anchor="middle" x="50" y="-231.8" style="font-family:Times New Roman;font-size:8.00;">e&#45;, 0.000907MeV</text>
</g>
<!-- 1&#45;&gt;2 -->
<g id="edge2" class="edge"><title>1&#45;&gt;2</title>
<path style="fill:none;stroke:blue;" d="M408,-300C336,-291 213,-275 109,-252 105,-251 102,-250 98,-249"/>
<polygon style="fill:blue;stroke:blue;" points="98.584,-245.521 88,-246 96.5725,-252.226 98.584,-245.521"/>
</g>
<!-- 3 -->
<g id="node4" class="node"><title>3</title>
<ellipse style="fill:red;stroke:black;" cx="159" cy="-234" rx="41.0684" ry="18"/>
<text text-anchor="middle" x="159" y="-231.8" style="font-family:Times New Roman;font-size:8.00;">e&#45;, 0.648MeV</text>
</g>
<!-- 1&#45;&gt;3 -->
<g id="edge4" class="edge"><title>1&#45;&gt;3</title>
<path style="fill:none;stroke:blue;" d="M413,-297C361,-287 279,-271 209,-252 206,-251 203,-250 200,-249"/>
<polygon style="fill:blue;stroke:blue;" points="200.584,-245.521 190,-246 198.573,-252.226 200.584,-245.521"/>
</g>
<!-- 4 -->
<g id="node6" class="node"><title>4</title>
<ellipse style="fill:blue;stroke:black;" cx="265" cy="-234" rx="46.8444" ry="18"/>
<text text-anchor="middle" x="265" y="-231.8" style="font-family:Times New Roman;font-size:8.00;">e&#45;, 0.00104MeV</text>
</g>
<!-- 1&#45;&gt;4 -->
<g id="edge6" class="edge"><title>1&#45;&gt;4</title>
<path style="fill:none;stroke:blue;" d="M428,-292C394,-280 344,-262 309,-249"/>
<polygon style="fill:blue;stroke:blue;" points="310.594,-245.842 300,-246 308.38,-252.483 310.594,-245.842"/>
</g>
<!-- 5 -->
<g id="node8" class="node"><title>5</title>
<ellipse style="fill:green;stroke:black;" cx="371" cy="-234" rx="41.0684" ry="18"/>
<text text-anchor="middle" x="371" y="-231.8" style="font-family:Times New Roman;font-size:8.00;">e&#45;, 0.898MeV</text>
</g>
<!-- 1&#45;&gt;5 -->
<g id="edge8" class="edge"><title>1&#45;&gt;5</title>
<path style="fill:none;stroke:blue;" d="M445,-289C432,-279 414,-266 400,-256"/>
<polygon style="fill:blue;stroke:blue;" points="402.1,-253.2 392,-250 397.9,-258.8 402.1,-253.2"/>
</g>
<!-- 6 -->
<g id="node10" class="node"><title>6</title>
<ellipse style="fill:green;stroke:black;" cx="468" cy="-234" rx="38.1051" ry="18"/>
<text text-anchor="middle" x="468" y="-231.8" style="font-family:Times New Roman;font-size:8.00;">e&#45;, 1.94MeV</text>
</g>
<!-- 1&#45;&gt;6 -->
<g id="edge10" class="edge"><title>1&#45;&gt;6</title>
<path style="fill:none;stroke:blue;" d="M468,-288C468,-280 468,-271 468,-262"/>
<polygon style="fill:blue;stroke:blue;" points="471.5,-262 468,-252 464.5,-262 471.5,-262"/>
</g>
<!-- 7 -->
<g id="node12" class="node"><title>7</title>
<ellipse style="fill:green;stroke:black;" cx="565" cy="-234" rx="41.0684" ry="18"/>
<text text-anchor="middle" x="565" y="-231.8" style="font-family:Times New Roman;font-size:8.00;">e&#45;, 0.812MeV</text>
</g>
<!-- 1&#45;&gt;7 -->
<g id="edge12" class="edge"><title>1&#45;&gt;7</title>
<path style="fill:none;stroke:blue;" d="M491,-289C504,-279 522,-266 536,-256"/>
<polygon style="fill:blue;stroke:blue;" points="538.1,-258.8 544,-250 533.9,-253.2 538.1,-258.8"/>
</g>
<!-- 8 -->
<g id="node14" class="node"><title>8</title>
<ellipse style="fill:blue;stroke:black;" cx="674" cy="-234" rx="50.2295" ry="18"/>
<text text-anchor="middle" x="674" y="-231.8" style="font-family:Times New Roman;font-size:8.00;">e&#45;, 0.000355MeV</text>
</g>
<!-- 1&#45;&gt;8 -->
<g id="edge14" class="edge"><title>1&#45;&gt;8</title>
<path style="fill:none;stroke:blue;" d="M508,-292C543,-280 593,-262 628,-250"/>
<polygon style="fill:blue;stroke:blue;" points="629.427,-253.226 638,-247 627.416,-246.521 629.427,-253.226"/>
</g>
<!-- 9 -->
<g id="node16" class="node"><title>9</title>
<ellipse style="fill:blue;stroke:black;" cx="789" cy="-234" rx="46.8444" ry="18"/>
<text text-anchor="middle" x="789" y="-231.8" style="font-family:Times New Roman;font-size:8.00;">e&#45;, 0.00311MeV</text>
</g>
<!-- 1&#45;&gt;9 -->
<g id="edge16" class="edge"><title>1&#45;&gt;9</title>
<path style="fill:none;stroke:blue;" d="M523,-297C576,-287 661,-271 733,-252 737,-251 740,-250 743,-249"/>
<polygon style="fill:blue;stroke:blue;" points="744.427,-252.226 753,-246 742.416,-245.521 744.427,-252.226"/>
</g>
<!-- 10 -->
<g id="node18" class="node"><title>10</title>
<ellipse style="fill:blue;stroke:black;" cx="904" cy="-234" rx="50.2295" ry="18"/>
<text text-anchor="middle" x="904" y="-231.8" style="font-family:Times New Roman;font-size:8.00;">e&#45;, 0.000395MeV</text>
</g>
<!-- 1&#45;&gt;10 -->
<g id="edge18" class="edge"><title>1&#45;&gt;10</title>
<path style="fill:none;stroke:blue;" d="M528,-300C603,-292 734,-276 845,-252 849,-251 853,-250 857,-249"/>
<polygon style="fill:blue;stroke:blue;" points="858.427,-252.226 867,-246 856.416,-245.521 858.427,-252.226"/>
</g>
<!-- 18 -->
<g id="node20" class="node"><title>18</title>
<ellipse style="fill:blue;stroke:black;" cx="242" cy="-162" rx="50.2295" ry="18"/>
<text text-anchor="middle" x="242" y="-159.8" style="font-family:Times New Roman;font-size:8.00;">e&#45;, 0.000355MeV</text>
</g>
<!-- 4&#45;&gt;18 -->
<g id="edge20" class="edge"><title>4&#45;&gt;18</title>
<path style="fill:none;stroke:red;" d="M259,-216C256,-208 253,-199 251,-190"/>
<polygon style="fill:red;stroke:red;" points="254.226,-188.573 248,-180 247.521,-190.584 254.226,-188.573"/>
</g>
<!-- 12 -->
<g id="node22" class="node"><title>12</title>
<ellipse style="fill:green;stroke:black;" cx="365" cy="-162" rx="54.9263" ry="18"/>
<text text-anchor="middle" x="365" y="-159.8" style="font-family:Times New Roman;font-size:8.00;">gamma, 0.317MeV</text>
</g>
<!-- 6&#45;&gt;12 -->
<g id="edge22" class="edge"><title>6&#45;&gt;12</title>
<path style="fill:none;stroke:green;" d="M447,-219C433,-209 413,-196 396,-184"/>
<polygon style="fill:green;stroke:green;" points="398.1,-181.2 388,-178 393.9,-186.8 398.1,-181.2"/>
</g>
<!-- 13 -->
<g id="node24" class="node"><title>13</title>
<ellipse style="fill:green;stroke:black;" cx="490" cy="-162" rx="52" ry="18"/>
<text text-anchor="middle" x="490" y="-159.8" style="font-family:Times New Roman;font-size:8.00;">gamma, 0.06MeV</text>
</g>
<!-- 6&#45;&gt;13 -->
<g id="edge24" class="edge"><title>6&#45;&gt;13</title>
<path style="fill:none;stroke:green;" d="M474,-216C476,-208 479,-198 482,-190"/>
<polygon style="fill:green;stroke:green;" points="485.479,-190.584 485,-180 478.774,-188.573 485.479,-190.584"/>
</g>
<!-- 11 -->
<g id="node26" class="node"><title>11</title>
<ellipse style="fill:green;stroke:black;" cx="615" cy="-162" rx="54.9263" ry="18"/>
<text text-anchor="middle" x="615" y="-159.8" style="font-family:Times New Roman;font-size:8.00;">gamma, 0.445MeV</text>
</g>
<!-- 7&#45;&gt;11 -->
<g id="edge26" class="edge"><title>7&#45;&gt;11</title>
<path style="fill:none;stroke:green;" d="M577,-217C583,-208 590,-197 597,-188"/>
<polygon style="fill:green;stroke:green;" points="599.8,-190.1 603,-180 594.2,-185.9 599.8,-190.1"/>
</g>
<!-- 16 -->
<g id="node28" class="node"><title>16</title>
<ellipse style="fill:green;stroke:black;" cx="259" cy="-90" rx="57.814" ry="18"/>
<text text-anchor="middle" x="259" y="-87.8" style="font-family:Times New Roman;font-size:8.00;">gamma, 0.0306MeV</text>
</g>
<!-- 12&#45;&gt;16 -->
<g id="edge28" class="edge"><title>12&#45;&gt;16</title>
<path style="fill:none;stroke:purple;" d="M341,-146C327,-136 308,-123 291,-112"/>
<polygon style="fill:purple;stroke:purple;" points="293.1,-109.2 283,-106 288.9,-114.8 293.1,-109.2"/>
</g>
<!-- 15 -->
<g id="node30" class="node"><title>15</title>
<ellipse style="fill:green;stroke:black;" cx="376" cy="-90" rx="41.0684" ry="18"/>
<text text-anchor="middle" x="376" y="-87.8" style="font-family:Times New Roman;font-size:8.00;">e&#45;, 0.281MeV</text>
</g>
<!-- 12&#45;&gt;15 -->
<g id="edge30" class="edge"><title>12&#45;&gt;15</title>
<path style="fill:none;stroke:purple;" d="M368,-144C369,-136 371,-127 372,-118"/>
<polygon style="fill:purple;stroke:purple;" points="375.488,-118.299 373,-108 368.522,-117.602 375.488,-118.299"/>
</g>
<!-- 14 -->
<g id="node32" class="node"><title>14</title>
<ellipse style="fill:green;stroke:black;" cx="490" cy="-90" rx="43.9565" ry="18"/>
<text text-anchor="middle" x="490" y="-87.8" style="font-family:Times New Roman;font-size:8.00;">e&#45;, 0.0269MeV</text>
</g>
<!-- 13&#45;&gt;14 -->
<g id="edge32" class="edge"><title>13&#45;&gt;14</title>
<path style="fill:none;stroke:purple;" d="M490,-144C490,-136 490,-127 490,-118"/>
<polygon style="fill:purple;stroke:purple;" points="493.5,-118 490,-108 486.5,-118 493.5,-118"/>
</g>
<!-- 17 -->
<g id="node34" class="node"><title>17</title>
<ellipse style="fill:green;stroke:black;" cx="259" cy="-18" rx="43.9565" ry="18"/>
<text text-anchor="middle" x="259" y="-15.8" style="font-family:Times New Roman;font-size:8.00;">e&#45;, 0.0256MeV</text>
</g>
<!-- 16&#45;&gt;17 -->
<g id="edge34" class="edge"><title>16&#45;&gt;17</title>
<path style="fill:none;stroke:purple;" d="M259,-72C259,-64 259,-55 259,-46"/>
<polygon style="fill:purple;stroke:purple;" points="262.5,-46 259,-36 255.5,-46 262.5,-46"/>
</g>
<!-- world_1 -->
<g id="node36" class="node"><title>world_1</title>
<ellipse style="fill:blue;stroke:blue;" cx="201" cy="-378" rx="27.7938" ry="18"/>
<text text-anchor="middle" x="201" y="-375.8" style="font-family:Times New Roman;font-size:8.00;">world_1</text>
</g>
<!-- world_1&#45;&gt;1 -->
<g id="edge36" class="edge"><title>world_1&#45;&gt;1</title>
<path style="fill:none;stroke:white;stroke-width:0;" d="M223,-366C228,-364 233,-362 238,-360 296,-339 365,-324 413,-315"/>
</g>
<!-- csi_5 -->
<g id="node38" class="node"><title>csi_5</title>
<ellipse style="fill:green;stroke:green;" cx="274" cy="-378" rx="27" ry="18"/>
<text text-anchor="middle" x="274" y="-375.8" style="font-family:Times New Roman;font-size:8.00;">csi_5</text>
</g>
<!-- csi_5&#45;&gt;1 -->
<g id="edge38" class="edge"><title>csi_5&#45;&gt;1</title>
<path style="fill:none;stroke:white;stroke-width:0;" d="M295,-366C300,-364 305,-362 310,-360 348,-344 392,-329 424,-319"/>
</g>
<!-- anticoincidence_7 -->
<g id="node40" class="node"><title>anticoincidence_7</title>
<ellipse style="fill:red;stroke:red;" cx="371" cy="-378" rx="52.0385" ry="18"/>
<text text-anchor="middle" x="371" y="-375.8" style="font-family:Times New Roman;font-size:8.00;">anticoincidence_7</text>
</g>
<!-- anticoincidence_7&#45;&gt;1 -->
<g id="edge40" class="edge"><title>anticoincidence_7&#45;&gt;1</title>
<path style="fill:none;stroke:white;stroke-width:0;" d="M393,-362C409,-350 430,-335 445,-323"/>
</g>
<!-- muIoni -->
<g id="node42" class="node"><title>muIoni</title>
<ellipse style="fill:white;stroke:white;" cx="468" cy="-378" rx="27" ry="18"/>
<text text-anchor="middle" x="468" y="-375.8" style="font-family:Times New Roman;font-size:8.00;fill:blue;">muIoni</text>
</g>
<!-- muIoni&#45;&gt;1 -->
<g id="edge42" class="edge"><title>muIoni&#45;&gt;1</title>
<path style="fill:none;stroke:white;stroke-width:0;" d="M468,-360C468,-349 468,-335 468,-324"/>
</g>
<!-- LowEnPhotoElec -->
<g id="node44" class="node"><title>LowEnPhotoElec</title>
<ellipse style="fill:white;stroke:white;" cx="561" cy="-378" rx="47.9974" ry="18"/>
<text text-anchor="middle" x="561" y="-375.8" style="font-family:Times New Roman;font-size:8.00;fill:purple;">LowEnPhotoElec</text>
</g>
<!-- LowEnPhotoElec&#45;&gt;1 -->
<g id="edge44" class="edge"><title>LowEnPhotoElec&#45;&gt;1</title>
<path style="fill:none;stroke:white;stroke-width:0;" d="M540,-362C525,-350 505,-335 490,-323"/>
</g>
<!-- LowEnBrem -->
<g id="node46" class="node"><title>LowEnBrem</title>
<ellipse style="fill:white;stroke:white;" cx="665" cy="-378" rx="38.1051" ry="18"/>
<text text-anchor="middle" x="665" y="-375.8" style="font-family:Times New Roman;font-size:8.00;fill:green;">LowEnBrem</text>
</g>
<!-- LowEnBrem&#45;&gt;1 -->
<g id="edge46" class="edge"><title>LowEnBrem&#45;&gt;1</title>
<path style="fill:none;stroke:white;stroke-width:0;" d="M635,-366C629,-364 623,-362 618,-360 581,-346 539,-331 508,-320"/>
</g>
<!-- LowEnergyIoni -->
<g id="node48" class="node"><title>LowEnergyIoni</title>
<ellipse style="fill:white;stroke:white;" cx="765" cy="-378" rx="43.9565" ry="18"/>
<text text-anchor="middle" x="765" y="-375.8" style="font-family:Times New Roman;font-size:8.00;fill:red;">LowEnergyIoni</text>
</g>
<!-- LowEnergyIoni&#45;&gt;1 -->
<g id="edge48" class="edge"><title>LowEnergyIoni&#45;&gt;1</title>
<path style="fill:none;stroke:white;stroke-width:0;" d="M732,-366C725,-364 718,-362 712,-360 648,-342 571,-326 522,-316"/>
</g>
</g>
</svg>
